<?xml version="1.0" encoding="iso-8859-1"?>
<!-- Generator: Adobe Illustrator 19.0.0, SVG Export Plug-In . SVG Version: 6.00 Build 0)  -->
<svg version="1.1" id="Capa_1" xmlns="http://www.w3.org/2000/svg" xmlns:xlink="http://www.w3.org/1999/xlink" x="0px" y="0px"
	 viewBox="0 0 512 512" style="enable-background:new 0 0 512 512;" xml:space="preserve">
<polygon style="fill:#E55934;" points="512,167.725 0,167.725 35.311,0 476.689,0 "/>
<polygon style="fill:#EA7A5D;" points="35.311,35.311 476.689,35.311 504.566,167.725 512,167.725 476.689,0 35.311,0 0,167.725 
	7.433,167.725 "/>
<path style="fill:#B05C46;" d="M494.345,476.689H17.656C7.901,476.689,0,484.591,0,494.344V512h512v-17.656
	C512,484.591,504.099,476.689,494.345,476.689z"/>
<rect x="26.483" y="167.725" style="fill:#EA7A5D;" width="141.24" height="220.69"/>
<rect x="61.796" y="203.035" style="fill:#F2F2F2;" width="70.62" height="97.105"/>
<rect x="61.796" y="300.134" style="fill:#FFFFFF;" width="70.62" height="88.275"/>
<g>
	<rect x="132.415" y="132.415" style="fill:#E55934;" width="247.176" height="35.311"/>
	<rect x="26.483" y="388.415" style="fill:#E55934;" width="141.24" height="88.275"/>
</g>
<g>
	<rect x="167.725" y="211.859" style="fill:#F5BB00;" width="176.55" height="264.824"/>
	<rect x="61.796" y="388.415" style="fill:#F5BB00;" width="70.62" height="35.311"/>
</g>
<rect x="344.275" y="167.725" style="fill:#EA7A5D;" width="141.24" height="220.69"/>
<rect x="379.585" y="203.035" style="fill:#F2F2F2;" width="70.62" height="97.105"/>
<rect x="379.585" y="300.134" style="fill:#FFFFFF;" width="70.62" height="88.275"/>
<rect x="344.275" y="388.415" style="fill:#E55934;" width="141.24" height="88.275"/>
<rect x="379.585" y="388.415" style="fill:#F5BB00;" width="70.62" height="35.311"/>
<rect x="167.725" y="167.725" style="fill:#AC4327;" width="176.55" height="44.141"/>
<rect x="203.035" y="247.176" style="fill:#F7F7F7;" width="52.965" height="114.76"/>
<rect x="256" y="247.176" style="fill:#F2F2F2;" width="52.965" height="114.76"/>
<path style="fill:#F5BB00;" d="M397.242,114.759h-17.655V97.104c0-19.501-15.81-35.311-35.311-35.311H167.724
	c-19.501,0-35.311,15.81-35.311,35.311v17.656h-17.656c-4.881,0-8.827,3.945-8.827,8.828c0,4.883,3.945,8.828,8.827,8.828h17.656
	h8.827h229.518h8.827h17.655c4.882,0,8.828-3.945,8.828-8.828C406.068,118.704,402.123,114.759,397.242,114.759z"/>
<path style="fill:#F9D666;" d="M308.965,406.069h-17.655c-4.882,0-8.827-3.946-8.827-8.828c0-4.882,3.945-8.827,8.827-8.827h17.655
	c4.882,0,8.827,3.946,8.827,8.827C317.793,402.123,313.848,406.069,308.965,406.069z"/>
<g>
</g>
<g>
</g>
<g>
</g>
<g>
</g>
<g>
</g>
<g>
</g>
<g>
</g>
<g>
</g>
<g>
</g>
<g>
</g>
<g>
</g>
<g>
</g>
<g>
</g>
<g>
</g>
<g>
</g>
</svg>
