<?xml version="1.0" encoding="iso-8859-1"?>
<!-- Generator: Adobe Illustrator 19.0.0, SVG Export Plug-In . SVG Version: 6.00 Build 0)  -->
<svg version="1.1" id="Layer_1" xmlns="http://www.w3.org/2000/svg" xmlns:xlink="http://www.w3.org/1999/xlink" x="0px" y="0px"
	 viewBox="0 0 496 496" style="enable-background:new 0 0 496 496;" xml:space="preserve">
<g>
	<path style="fill:#333333;" d="M139.88,384.024c-13.176,0-23.896-10.768-23.896-24v-56.016h16v56.016c0,4.488,3.472,8,7.896,8
		c4.472,0,8.104-3.632,8.104-8.096v-39.912h16v39.912C163.976,373.216,153.168,384.024,139.88,384.024z"/>
	<path style="fill:#333333;" d="M276.008,472.048c-29.152,0-40.008-24.536-40.008-40.008c0-4.184-3.824-8.008-8.008-8.008
		s-8,3.824-8,8.008c0.008,6.296-2.512,12.296-7.112,16.888c-4.584,4.584-10.584,7.112-16.888,7.112c-13.008,0-24-10.992-24-24
		l-0.008-88.024h16l0.008,88.024c0,4.184,3.816,8,8,8s8.008-3.816,8.008-8c-0.008-6.2,2.584-12.368,7.112-16.888
		c4.512-4.52,10.672-7.12,16.88-7.12c13.016,0,24.008,10.992,24.008,24.008c0,6.68,4.312,24.008,24.008,24.008
		s24.008-17.328,24.008-24.008h16C316.016,447.504,305.16,472.048,276.008,472.048z"/>
</g>
<path style="fill:#F9BA48;" d="M420.04,87.968C396,80,355.632,72,324,72c-48,0-85.28,12.128-120.008,31.976
	c-56.008,32-88.8,90.344-112.024,160.024c-2.6,7.8-6.048,13.032-9.784,16.592l284.76,205.648c2.512,2.256,12.144,9.76,29.056,9.76
	c31.64,0,40.024-26.136,40.04-39.96V90.88C430.888,90.712,425.472,89.768,420.04,87.968z"/>
<g>
	<path style="fill:#333333;" d="M59.96,296.008c-29.464,0-39.96-20.64-39.96-39.96c0-49.896,52.192-167.136,156.192-223.136
		C215.064,11.984,268.616,0,323.224,0c0.264,0,0.52,0,0.792,0c52.248,0.112,100.2,9.168,131.56,24.84
		C456.416,25.256,476,35.384,476,64c0,11.6-4.752,21.416-13.368,27.64c-11.216,8.112-28.064,9.576-45.112,3.92
		C394.2,87.832,354.576,80,324,80c-42.832,0-78.616,9.536-116.04,30.92c-47.64,27.216-82.088,76.664-108.408,155.608
		C89.736,296.008,68.104,296.008,59.96,296.008z M323.264,16c-51.312,0-103.408,11.568-139.488,31.008
		C78.528,103.672,36,217.944,36,256.048c0,10.928,4.16,23.96,23.96,23.96c7.696,0,18.24,0,24.424-18.536
		c27.632-82.896,64.376-135.16,115.64-164.44C239.464,74.496,278.856,64,324,64c33.776,0,74.768,8.496,98.552,16.376
		c12.016,3.976,23.76,3.312,30.712-1.712C457.736,75.44,460,70.504,460,64c0-18.392-11.2-24.64-11.68-24.896
		c-29.112-14.56-74.472-23-124.336-23.104C323.744,16,323.504,16,323.264,16z"/>
	
		<rect x="303.031" y="371.995" transform="matrix(-0.7071 0.7071 -0.7071 -0.7071 814.9756 422.4161)" style="fill:#333333;" width="33.944" height="16"/>
	
		<rect x="239.508" y="223.962" transform="matrix(-0.2423 0.9702 -0.9702 -0.2423 543.079 39.7859)" style="fill:#333333;" width="32.992" height="15.992"/>
	<rect x="148" y="216" style="fill:#333333;" width="32" height="16"/>
	
		<rect x="359.043" y="155.997" transform="matrix(-0.7071 0.7071 -0.7071 -0.7071 757.8612 14.0766)" style="fill:#333333;" width="33.944" height="16"/>
	
		<rect x="296.019" y="105.571" transform="matrix(-0.5546 0.8321 -0.8321 -0.5546 572.4795 -66.4335)" style="fill:#333333;" width="16" height="28.848"/>
	
		<rect x="372.039" y="293.592" transform="matrix(-0.832 0.5548 -0.5548 -0.832 867.1147 353.4473)" style="fill:#333333;" width="16" height="28.856"/>
	<path style="fill:#333333;" d="M236,183.984c-13.232,0-24.008-10.768-24.008-24s10.776-24,24.008-24s24,10.768,24,24
		S249.232,183.984,236,183.984z M236,151.984c-4.416,0-8.008,3.584-8.008,8s3.592,8,8.008,8s8-3.584,8-8
		S240.416,151.984,236,151.984z"/>
	<path style="fill:#333333;" d="M187.984,304.008c-13.232,0-24-10.768-24-24s10.768-24.008,24-24.008s24.008,10.776,24.008,24.008
		S201.216,304.008,187.984,304.008z M187.984,272c-4.416,0-8,3.592-8,8.008s3.584,8,8,8s8.008-3.584,8.008-8S192.4,272,187.984,272z
		"/>
	<path style="fill:#333333;" d="M332.016,256c-17.648,0-32-14.352-32-32s14.352-32.008,32-32.008s32.008,14.36,32.008,32.008
		S349.664,256,332.016,256z M332.016,207.992c-8.824,0-16,7.176-16,16.008c0,8.824,7.176,16,16,16c8.832,0,16.008-7.176,16.008-16
		C348.024,215.168,340.848,207.992,332.016,207.992z"/>
	<path style="fill:#333333;" d="M379.992,424.008c-13.232,0-24-10.776-24-24.008s10.768-24,24-24S404,386.768,404,400
		S393.224,424.008,379.992,424.008z M379.992,392c-4.416,0-8,3.584-8,8s3.584,8.008,8,8.008S388,404.416,388,400
		S384.408,392,379.992,392z"/>
	<path style="fill:#333333;" d="M284.008,344.016c-17.648,0-32.008-14.352-32.008-32s14.36-32.008,32.008-32.008
		s32.008,14.36,32.008,32.008S301.656,344.016,284.008,344.016z M284.008,296.008c-8.832,0-16.008,7.176-16.008,16.008
		c0,8.824,7.176,16,16.008,16s16.008-7.176,16.008-16C300.016,303.184,292.84,296.008,284.008,296.008z"/>
</g>
<g>
</g>
<g>
</g>
<g>
</g>
<g>
</g>
<g>
</g>
<g>
</g>
<g>
</g>
<g>
</g>
<g>
</g>
<g>
</g>
<g>
</g>
<g>
</g>
<g>
</g>
<g>
</g>
<g>
</g>
</svg>
